<svg xmlns="http://www.w3.org/2000/svg" width="640" height="420" viewBox="0 0 640 420" font-family="Helvetica,Arial,sans-serif">
<g stroke="#c9c9d2" stroke-width="2" fill="none">
<path d="M320 66v28M320 146v24M120 170h400M120 170v22M520 170v22M120 262v24M520 262v24M120 310h400M320 310v24"/></g>
<rect x="200" y="20" width="240" height="46" rx="23" fill="#fff" stroke="#FF385C" stroke-width="2"/>
<text x="320" y="43" text-anchor="middle" font-size="15" font-weight="700" fill="#1d1d1f">🛒 Cart abandoned</text>
<text x="320" y="58" text-anchor="middle" font-size="10" fill="#6e6e73">3 396 enrolled</text>
<rect x="215" y="100" width="210" height="46" rx="23" fill="#fff" stroke="#ececef"/>
<text x="320" y="128" text-anchor="middle" font-size="15" font-weight="700" fill="#1d1d1f">✉️ Reminder email</text>
<rect x="55" y="192" width="130" height="26" rx="13" fill="#dcf2e7"/>
<text x="120" y="209" text-anchor="middle" font-size="11" font-weight="700" fill="#0a8f5b">opened · 58%</text>
<rect x="455" y="192" width="130" height="26" rx="13" fill="#efeff2"/>
<text x="520" y="209" text-anchor="middle" font-size="11" font-weight="700" fill="#6e6e73">no open · 42%</text>
<rect x="18" y="226" width="204" height="40" rx="20" fill="#fff" stroke="#ececef"/>
<text x="120" y="250" text-anchor="middle" font-size="13" font-weight="700" fill="#1d1d1f">📲 +4h · SMS promo</text>
<rect x="418" y="226" width="204" height="40" rx="20" fill="#fff" stroke="#ececef"/>
<text x="520" y="250" text-anchor="middle" font-size="13" font-weight="700" fill="#1d1d1f">✉️ +24h · nudge email</text>
<rect x="185" y="334" width="270" height="46" rx="23" fill="#fff" stroke="#0a8f5b" stroke-width="2"/>
<text x="320" y="357" text-anchor="middle" font-size="14" font-weight="700" fill="#0a8f5b">✓ Purchase → auto-exit</text>
<text x="320" y="372" text-anchor="middle" font-size="10" fill="#6e6e73">188 closes the goal</text>
<text x="320" y="408" text-anchor="middle" font-size="11" fill="#6e6e73">journey live · awaiting your approval</text></svg>